<svg xmlns="http://www.w3.org/2000/svg" viewBox="0 0 1600 900"><defs><linearGradient id="bg" x2="1" y2="1"><stop stop-color="#090711"/><stop offset=".55" stop-color="#13102a"/><stop offset="1" stop-color="#260b26"/></linearGradient><radialGradient id="a"><stop stop-color="#ffe01b" stop-opacity=".18"/><stop offset="1" stop-color="#ffe01b" stop-opacity="0"/></radialGradient></defs><rect width="1600" height="900" fill="url(#bg)"/><circle cx="1240" cy="230" r="540" fill="url(#a)"/><g stroke="#33245a" stroke-width="2" opacity=".55"><path d="M0 120h1600M0 240h1600M0 360h1600M0 480h1600M0 600h1600M0 720h1600M120 0v900M240 0v900M360 0v900M480 0v900M600 0v900M720 0v900M840 0v900M960 0v900M1080 0v900M1200 0v900M1320 0v900M1440 0v900"/></g><path d="M0 700 260 562l180 110 260-190 265 100 220-160 415 190" fill="none" stroke="#00e8ff" stroke-width="3" opacity=".4"/><path d="M0 718 260 580l180 110 260-190 265 100 220-160 415 190" fill="none" stroke="#ff36df" stroke-width="3" opacity=".35"/><g font-family="monospace"><text x="92" y="160" fill="#ffe01b" font-size="19" letter-spacing="5">CYBERDECK // SYSTEMS INTELLIGENCE</text><text x="92" y="236" fill="#f6efff" font-size="62" font-weight="700">OBSERVE · DIAGNOSE ·</text><text x="92" y="308" fill="#00e8ff" font-size="62" font-weight="700">ACT WITH PRECISION</text></g></svg>
